<svg width="472" height="303" viewBox="0 0 472 303" fill="none" xmlns="http://www.w3.org/2000/svg">
<path d="M336.814 199.444L275.024 234.03V95.1108L336.814 60.5251V199.444Z" fill="url(#paint0_linear_341_2)" fill-opacity="0.5"/>
<path d="M212.023 177.54L192.638 187.916L275.024 234.03V95.1108L212.023 60.5251V177.54Z" fill="url(#paint1_linear_341_2)" fill-opacity="0.5"/>
<path d="M212.022 60.5251L275.024 95.1108L336.813 60.5251L236.859 6.91714L212.022 20.7514V60.5251Z" fill="url(#paint2_linear_341_2)"/>
<path d="M326.84 86.1559L284.52 110.1C283.893 110.455 283.505 111.12 283.505 111.841V117.03C283.505 117.796 284.331 118.277 284.997 117.9L327.318 93.9559C327.945 93.601 328.333 92.9359 328.333 92.2152V87.0263C328.333 86.2603 327.507 85.7787 326.84 86.1559Z" fill="#140216"/>
<path d="M315.508 169.213C311.603 176.305 304.483 180.083 299.606 177.651C294.729 175.22 293.941 167.499 297.846 160.407C301.751 153.315 308.871 149.537 313.748 151.969C318.625 154.401 319.413 162.121 315.508 169.213Z" fill="#140315"/>
<path d="M69.6641 257.664V252.476L102.376 272.651V277.262L69.6641 257.664Z" fill="#100317"/>
<path d="M102.376 272.651L69.6641 252.476L120.55 224.231L150.943 245.084L102.376 272.651Z" fill="url(#paint3_linear_341_2)"/>
<path d="M0 111.251L9.69249 117.015V288.215L0 282.45V111.251Z" fill="url(#paint4_linear_341_2)"/>
<path d="M212.629 176.964L9.69238 288.215V117.015L212.629 5.18787V176.964Z" fill="#0F011C"/>
<path d="M202.396 31.0277L23.9606 129.153C20.7649 130.91 18.7793 134.268 18.7793 137.915V254.869C18.7793 257.157 21.2377 258.602 23.2373 257.49L200.22 159.071C203.392 157.306 205.36 153.961 205.36 150.331V32.7802C205.36 31.259 203.729 30.2947 202.396 31.0277Z" fill="url(#paint5_linear_341_2)"/>
<path d="M0 111.251L9.69249 117.015L212.629 5.18786L202.331 0L0 111.251Z" fill="url(#paint6_linear_341_2)"/>
<path d="M92.6846 257.664V242.677L98.7424 239.218V261.122L92.6846 257.664Z" fill="url(#paint7_linear_341_2)"/>
<path d="M124.185 246.135L98.7422 261.122V239.218L124.185 225.384V246.135Z" fill="url(#paint8_linear_341_2)"/>
<path d="M102.377 277.262V272.651L150.944 245.084V249.643L102.377 277.262Z" fill="#13041B"/>
<path d="M216.258 39.2484L37.533 137.374C34.3339 139.13 32.3457 142.49 32.3457 146.14V263.088C32.3457 265.376 34.8041 266.822 36.8037 265.71L213.8 167.282C216.965 165.522 218.932 162.188 218.94 158.567L219.221 41.0063C219.224 39.4837 217.593 38.5156 216.258 39.2484Z" fill="url(#paint9_linear_341_2)"/>
<path d="M216.267 39.2423L37.5361 137.289C34.3353 139.045 32.3457 142.406 32.3457 146.057V151.61L219.229 47.8768V40.9958C219.229 39.4755 217.6 38.5111 216.267 39.2423Z" fill="#442158"/>
<path d="M200.976 65.7859L115.524 112.568C115.203 112.743 115.004 113.08 115.004 113.445C115.004 114.205 115.818 114.687 116.484 114.322L201.936 67.54C202.256 67.3646 202.456 67.0283 202.456 66.663C202.456 65.9033 201.642 65.4211 200.976 65.7859Z" fill="url(#paint10_linear_341_2)" fill-opacity="0.8"/>
<path d="M185.402 80.6164L115.517 119.407C115.2 119.583 115.004 119.917 115.004 120.279C115.004 121.038 115.82 121.519 116.484 121.15L186.369 82.3592C186.686 82.1835 186.882 81.8499 186.882 81.4878C186.882 80.728 186.066 80.2476 185.402 80.6164Z" fill="url(#paint11_linear_341_2)" fill-opacity="0.8"/>
<path d="M185.402 109.114L115.517 147.905C115.2 148.081 115.004 148.415 115.004 148.777C115.004 149.537 115.82 150.017 116.484 149.648L186.369 110.857C186.686 110.682 186.882 110.348 186.882 109.986C186.882 109.226 186.066 108.746 185.402 109.114Z" fill="url(#paint12_linear_341_2)" fill-opacity="0.8"/>
<path d="M185.402 130.773L115.517 169.564C115.2 169.74 115.004 170.073 115.004 170.435C115.004 171.195 115.82 171.675 116.484 171.307L186.369 132.516C186.686 132.34 186.882 132.007 186.882 131.644C186.882 130.885 186.066 130.404 185.402 130.773Z" fill="url(#paint13_linear_341_2)" fill-opacity="0.8"/>
<path d="M185.402 137.613L115.517 176.403C115.2 176.579 115.004 176.913 115.004 177.275C115.004 178.035 115.82 178.515 116.484 178.146L186.369 139.355C186.686 139.18 186.882 138.846 186.882 138.484C186.882 137.724 186.066 137.244 185.402 137.613Z" fill="url(#paint14_linear_341_2)" fill-opacity="0.8"/>
<path d="M145.87 109.671L115.525 126.247C115.204 126.422 115.004 126.759 115.004 127.125C115.004 127.884 115.817 128.367 116.483 128.003L146.828 111.427C147.149 111.252 147.349 110.915 147.349 110.549C147.349 109.79 146.536 109.307 145.87 109.671Z" fill="url(#paint15_linear_341_2)" fill-opacity="0.8"/>
<path d="M109.929 115.993L90.3367 127.386C90.0333 127.563 89.8467 127.887 89.8467 128.238C89.8467 128.998 90.6705 129.472 91.3275 129.09L110.92 117.697C111.223 117.521 111.41 117.196 111.41 116.845C111.41 116.085 110.586 115.611 109.929 115.993Z" fill="url(#paint16_linear_341_2)" fill-opacity="0.8"/>
<path d="M78.7565 133.117L40.0255 155.88C39.7199 156.059 39.5322 156.387 39.5322 156.742V193.749C39.5322 194.522 40.3723 195.003 41.0389 194.611L79.7698 171.848C80.0755 171.669 80.2631 171.341 80.2631 170.986V133.979C80.2631 133.206 79.4231 132.725 78.7565 133.117Z" fill="url(#paint17_linear_341_2)" fill-opacity="0.8"/>
<path d="M78.7565 180.993L40.0255 203.756C39.7199 203.936 39.5322 204.264 39.5322 204.618V241.626C39.5322 242.399 40.3723 242.88 41.0389 242.488L79.7698 219.725C80.0755 219.546 80.2631 219.218 80.2631 218.863V181.856C80.2631 181.082 79.4231 180.602 78.7565 180.993Z" fill="url(#paint18_linear_341_2)" fill-opacity="0.8"/>
<path d="M109.929 122.833L90.3367 134.226C90.0333 134.402 89.8467 134.727 89.8467 135.078C89.8467 135.838 90.6705 136.312 91.3275 135.93L110.92 124.537C111.223 124.36 111.41 124.036 111.41 123.685C111.41 122.925 110.586 122.451 109.929 122.833Z" fill="url(#paint19_linear_341_2)" fill-opacity="0.8"/>
<path d="M109.929 129.672L90.3367 141.066C90.0333 141.242 89.8467 141.566 89.8467 141.917C89.8467 142.677 90.6705 143.151 91.3275 142.769L110.92 131.376C111.223 131.2 111.41 130.875 111.41 130.524C111.41 129.764 110.586 129.29 109.929 129.672Z" fill="url(#paint20_linear_341_2)" fill-opacity="0.8"/>
<path d="M109.929 136.512L90.3367 147.905C90.0333 148.081 89.8467 148.406 89.8467 148.757C89.8467 149.517 90.6705 149.991 91.3275 149.609L110.92 138.216C111.223 138.039 111.41 137.715 111.41 137.364C111.41 136.604 110.586 136.13 109.929 136.512Z" fill="url(#paint21_linear_341_2)" fill-opacity="0.8"/>
<path d="M109.929 143.351L90.3367 154.745C90.0333 154.921 89.8467 155.246 89.8467 155.596C89.8467 156.356 90.6705 156.83 91.3275 156.448L110.92 145.055C111.223 144.879 111.41 144.554 111.41 144.203C111.41 143.443 110.586 142.969 109.929 143.351Z" fill="url(#paint22_linear_341_2)" fill-opacity="0.8"/>
<path d="M109.929 150.191L90.3367 161.584C90.0333 161.761 89.8467 162.085 89.8467 162.436C89.8467 163.196 90.6705 163.67 91.3275 163.288L110.92 151.895C111.223 151.718 111.41 151.394 111.41 151.043C111.41 150.283 110.586 149.809 109.929 150.191Z" fill="url(#paint23_linear_341_2)" fill-opacity="0.8"/>
<path d="M109.929 172.99L90.3367 184.383C90.0333 184.559 89.8467 184.884 89.8467 185.235C89.8467 185.994 90.6705 186.468 91.3275 186.086L110.92 174.693C111.223 174.517 111.41 174.192 111.41 173.841C111.41 173.081 110.586 172.608 109.929 172.99Z" fill="url(#paint24_linear_341_2)" fill-opacity="0.8"/>
<path d="M109.929 179.829L90.3367 191.222C90.0333 191.399 89.8467 191.723 89.8467 192.074C89.8467 192.834 90.6705 193.308 91.3275 192.926L110.92 181.533C111.223 181.356 111.41 181.032 111.41 180.681C111.41 179.921 110.586 179.447 109.929 179.829Z" fill="url(#paint25_linear_341_2)" fill-opacity="0.8"/>
<path d="M109.929 186.669L90.3367 198.062C90.0333 198.238 89.8467 198.563 89.8467 198.914C89.8467 199.674 90.6705 200.147 91.3275 199.765L110.92 188.372C111.223 188.196 111.41 187.871 111.41 187.52C111.41 186.761 110.586 186.287 109.929 186.669Z" fill="url(#paint26_linear_341_2)" fill-opacity="0.8"/>
<path d="M109.929 193.508L90.3367 204.901C90.0333 205.078 89.8467 205.402 89.8467 205.753C89.8467 206.513 90.6705 206.987 91.3275 206.605L110.92 195.212C111.223 195.035 111.41 194.711 111.41 194.36C111.41 193.6 110.586 193.126 109.929 193.508Z" fill="url(#paint27_linear_341_2)" fill-opacity="0.8"/>
<path d="M181.809 89.7222L151.464 106.298C151.143 106.474 150.943 106.811 150.943 107.176C150.943 107.936 151.756 108.419 152.423 108.055L182.768 91.4783C183.089 91.3029 183.288 90.9662 183.288 90.6004C183.288 89.8411 182.475 89.3581 181.809 89.7222Z" fill="url(#paint28_linear_341_2)" fill-opacity="0.8"/>
<path d="M130.894 131.347L115.514 139.926C115.199 140.102 115.004 140.434 115.004 140.795C115.004 141.555 115.821 142.035 116.484 141.665L131.864 133.086C132.179 132.91 132.374 132.577 132.374 132.216C132.374 131.457 131.558 130.977 130.894 131.347Z" fill="url(#paint29_linear_341_2)" fill-opacity="0.8"/>
<path d="M130.894 175.234L115.514 183.813C115.199 183.989 115.004 184.321 115.004 184.682C115.004 185.442 115.821 185.922 116.484 185.552L131.864 176.973C132.179 176.797 132.374 176.464 132.374 176.104C132.374 175.344 131.558 174.864 130.894 175.234Z" fill="url(#paint30_linear_341_2)" fill-opacity="0.8"/>
<path d="M150.062 120.518L134.682 129.097C134.367 129.272 134.172 129.605 134.172 129.966C134.172 130.726 134.989 131.205 135.652 130.835L151.032 122.257C151.347 122.081 151.542 121.748 151.542 121.387C151.542 120.627 150.726 120.148 150.062 120.518Z" fill="url(#paint31_linear_341_2)" fill-opacity="0.8"/>
<path d="M193.787 89.734L115.518 133.086C115.201 133.262 115.004 133.596 115.004 133.959C115.004 134.718 115.82 135.199 116.484 134.831L194.754 91.4786C195.071 91.3029 195.268 90.9689 195.268 90.6063C195.268 89.8465 194.452 89.3658 193.787 89.734Z" fill="url(#paint32_linear_341_2)" fill-opacity="0.8"/>
<path d="M389.339 103.733L468.405 147.05V79.7946L389.339 36.4775V103.733Z" fill="url(#paint33_linear_341_2)"/>
<path d="M471.999 143.63L468.405 147.05V79.7946L471.999 77.5148V143.63Z" fill="#291532"/>
<path d="M392.934 34.1977L389.34 36.4775L468.406 79.7946L472 77.5148L392.934 34.1977Z" fill="#291532"/>
<path d="M377.36 66.1155L389.34 81.5045V63.8357L377.36 66.1155Z" fill="#1A0416"/>
<path d="M377.36 66.1156L389.34 62.1258V63.8357L377.36 66.1156Z" fill="#291532"/>
<path d="M449.712 100.477L437.864 84.5051C437.29 83.7312 436.061 84.1373 436.061 85.1009V91.3629C436.061 91.6203 436.16 91.8677 436.338 92.0537L441.227 97.1713C441.657 97.621 441.576 98.3496 441.058 98.6944L436.507 101.726C436.228 101.912 436.061 102.224 436.061 102.559V106.71C436.061 107.444 436.827 107.928 437.491 107.613L449.339 101.975C449.907 101.705 450.087 100.982 449.712 100.477Z" fill="url(#paint34_linear_341_2)" fill-opacity="0.4"/>
<path d="M426.565 74.5057L433.751 108.169C433.938 109.046 432.965 109.707 432.218 109.21L428.619 106.813C428.398 106.665 428.245 106.437 428.193 106.177L421.545 72.9691C421.372 72.1061 422.318 71.4569 423.061 71.9283L426.122 73.87C426.349 74.0139 426.508 74.243 426.565 74.5057Z" fill="url(#paint35_linear_341_2)" fill-opacity="0.4"/>
<path d="M419.289 82.5094V77.3881C419.289 76.6532 418.523 76.1693 417.86 76.485L407.243 81.5363C406.663 81.8119 406.49 82.5543 406.887 83.0583L418.702 98.0481C419.289 98.7933 420.487 98.378 420.487 97.429V92.6874C420.487 92.4586 420.409 92.2367 420.265 92.0587L415.384 86.0209C414.951 85.485 415.177 84.6819 415.826 84.4504L418.625 83.4513C419.024 83.3092 419.289 82.9322 419.289 82.5094Z" fill="url(#paint36_linear_341_2)" fill-opacity="0.4"/>
<path d="M389.339 181.248L468.405 224.565V157.309L389.339 113.992V181.248Z" fill="url(#paint37_linear_341_2)"/>
<path d="M471.999 221.145L468.405 224.565V157.309L471.999 155.03V221.145Z" fill="#291532"/>
<path d="M392.934 111.712L389.34 113.992L468.406 157.309L472 155.03L392.934 111.712Z" fill="#291532"/>
<path d="M377.36 143.63L389.34 159.019V141.35L377.36 143.63Z" fill="#1A0416"/>
<path d="M377.36 143.63L389.34 139.641V141.35L377.36 143.63Z" fill="#291532"/>
<path d="M433.665 162.36V158.056C433.665 157.717 434.027 157.502 434.321 157.671C441.669 161.898 442.007 168.223 441.682 171.97C441.663 172.182 441.71 172.395 441.819 172.579L445.238 178.337C445.476 178.738 445.387 179.235 444.962 179.427C443.845 179.929 442.026 180.411 442.162 181.322C442.182 181.459 442.222 181.594 442.222 181.733C442.219 185.27 442.065 191.05 434.182 191.487C433.902 191.502 433.665 191.276 433.665 190.995V186.953C433.665 186.66 433.919 186.435 434.211 186.42C437.371 186.254 437.14 182.001 437.094 178.659C437.087 178.228 437.364 177.845 437.774 177.71L439.013 177.299C439.196 177.239 439.275 177.025 439.176 176.86L437.23 173.619C437.137 173.464 437.087 173.286 437.088 173.104C437.105 168.539 437.508 164.373 434.57 163.451C434.073 163.295 433.665 162.88 433.665 162.36Z" fill="url(#paint38_linear_341_2)" fill-opacity="0.4"/>
<path d="M421.685 178.402V182.711C421.685 183.084 421.29 183.325 420.964 183.142C413.693 179.064 413.345 172.991 413.666 169.378C413.685 169.159 413.636 168.939 413.521 168.751L410.136 163.24C409.886 162.833 409.978 162.323 410.418 162.134C411.532 161.656 413.305 161.192 413.19 160.328C413.171 160.186 413.128 160.048 413.128 159.905C413.131 156.44 413.299 150.767 421.475 150.476C421.588 150.472 421.685 150.562 421.685 150.675V154.748C421.685 155.098 421.383 155.367 421.034 155.395C417.993 155.639 418.209 159.669 418.256 162.858C418.262 163.293 417.981 163.678 417.567 163.81L416.347 164.201C416.161 164.26 416.08 164.479 416.183 164.645L418.111 167.749C418.21 167.907 418.262 168.09 418.261 168.277C418.243 172.812 417.822 176.934 421.045 177.661C421.401 177.741 421.685 178.037 421.685 178.402Z" fill="url(#paint39_linear_341_2)" fill-opacity="0.4"/>
<path d="M389.339 258.763L468.405 302.08V234.824L389.339 191.507V258.763Z" fill="url(#paint40_linear_341_2)"/>
<path d="M471.999 298.66L468.405 302.08V234.824L471.999 232.544V298.66Z" fill="#291532"/>
<path d="M392.934 189.227L389.34 191.507L468.406 234.824L472 232.544L392.934 189.227Z" fill="#291532"/>
<path d="M377.36 221.145L389.34 236.534V218.865L377.36 221.145Z" fill="#1A0416"/>
<path d="M377.36 221.145L389.34 217.155V218.865L377.36 221.145Z" fill="#291532"/>
<path fill-rule="evenodd" clip-rule="evenodd" d="M426.515 225.705L427.413 231.26C428.892 231.896 430.357 232.845 431.745 234.058L434.921 231.037L439.964 235.835L436.235 239.384C437.188 240.894 438.032 242.556 438.726 244.341C438.938 244.883 439.13 245.425 439.305 245.966H443.326L444.446 253.431H440.617C440.655 255.116 440.504 256.714 440.173 258.176L443.886 262.495L440.524 266.227L437.791 263.338C436.816 264.53 435.602 265.423 434.167 265.929C433.339 266.221 432.478 266.369 431.6 266.385L432.679 270.493H427.076L425.521 264.574C424.169 263.765 422.85 262.703 421.614 261.427L418.671 264.628L414.188 260.362L417.46 255.693C416.893 254.645 416.379 253.537 415.928 252.377C415.649 251.661 415.402 250.944 415.186 250.231H409.705V242.767H414.031C414.032 241.204 414.199 239.722 414.523 238.362L409.705 234.236L413.067 229.97L416.96 233.263C417.918 232.13 419.099 231.278 420.487 230.789C420.998 230.609 421.521 230.484 422.053 230.41L420.912 225.705H426.515ZM430.771 258.3C427.09 259.597 422.315 256.049 420.106 250.375C417.897 244.701 419.091 239.05 422.772 237.752C426.454 236.454 431.229 240.002 433.438 245.676C435.647 251.35 434.453 257.002 430.771 258.3Z" fill="url(#paint41_linear_341_2)"/>
<path d="M216.22 45.8354C215.56 47.0339 214.357 47.6723 213.533 47.2613C212.709 46.8504 212.576 45.5457 213.236 44.3472C213.896 43.1487 215.099 42.5103 215.923 42.9212C216.747 43.3322 216.88 44.6369 216.22 45.8354Z" fill="#260F31"/>
<path d="M210.23 49.2551C209.57 50.4536 208.367 51.0921 207.543 50.6811C206.719 50.2702 206.586 48.9655 207.245 47.767C207.905 46.5685 209.109 45.9301 209.933 46.341C210.757 46.7519 210.89 48.0566 210.23 49.2551Z" fill="#260F31"/>
<path d="M204.24 52.6749C203.58 53.8734 202.377 54.5118 201.553 54.1009C200.728 53.6899 200.595 52.3852 201.255 51.1868C201.915 49.9883 203.118 49.3498 203.943 49.7608C204.767 50.1717 204.9 51.4764 204.24 52.6749Z" fill="#260F31"/>
<defs>
<linearGradient id="paint0_linear_341_2" x1="305.919" y1="60.5251" x2="305.919" y2="234.03" gradientUnits="userSpaceOnUse">
<stop stop-color="#190416"/>
<stop offset="1" stop-color="#813333" stop-opacity="0"/>
</linearGradient>
<linearGradient id="paint1_linear_341_2" x1="275.024" y1="96.2637" x2="217.898" y2="209.86" gradientUnits="userSpaceOnUse">
<stop stop-color="#1B090E"/>
<stop offset="1" stop-color="#170410" stop-opacity="0.4"/>
</linearGradient>
<linearGradient id="paint2_linear_341_2" x1="279.264" y1="94.5344" x2="231.67" y2="-0.792989" gradientUnits="userSpaceOnUse">
<stop stop-color="#2D1836"/>
<stop offset="1" stop-color="#11011B" stop-opacity="0.3"/>
</linearGradient>
<linearGradient id="paint3_linear_341_2" x1="109.948" y1="224.231" x2="109.948" y2="272.651" gradientUnits="userSpaceOnUse">
<stop stop-color="#1A0923"/>
<stop offset="1" stop-color="#1A0923" stop-opacity="0.4"/>
</linearGradient>
<linearGradient id="paint4_linear_341_2" x1="4.84625" y1="288.215" x2="4.84625" y2="114.709" gradientUnits="userSpaceOnUse">
<stop stop-color="#1D082B"/>
<stop offset="1" stop-color="#170722" stop-opacity="0.3"/>
</linearGradient>
<linearGradient id="paint5_linear_341_2" x1="201.725" y1="34.0093" x2="41.4608" y2="254.395" gradientUnits="userSpaceOnUse">
<stop stop-color="#321743"/>
<stop offset="1" stop-color="#11011B" stop-opacity="0.6"/>
</linearGradient>
<linearGradient id="paint6_linear_341_2" x1="205.965" y1="6.34071" x2="19.4701" y2="120.462" gradientUnits="userSpaceOnUse">
<stop stop-color="#1D0829"/>
<stop offset="1" stop-color="#281331" stop-opacity="0.4"/>
</linearGradient>
<linearGradient id="paint7_linear_341_2" x1="95.7135" y1="239.218" x2="95.7135" y2="261.122" gradientUnits="userSpaceOnUse">
<stop stop-color="#12031A"/>
<stop offset="1" stop-color="#12031A" stop-opacity="0.4"/>
</linearGradient>
<linearGradient id="paint8_linear_341_2" x1="111.464" y1="225.384" x2="111.464" y2="261.122" gradientUnits="userSpaceOnUse">
<stop stop-color="#100216"/>
<stop offset="1" stop-color="#100216" stop-opacity="0"/>
</linearGradient>
<linearGradient id="paint9_linear_341_2" x1="125.787" y1="37.6175" x2="125.787" y2="268.189" gradientUnits="userSpaceOnUse">
<stop stop-color="#3F1F53"/>
<stop offset="1" stop-color="#3F1F53" stop-opacity="0"/>
</linearGradient>
<linearGradient id="paint10_linear_341_2" x1="115.004" y1="113.992" x2="213.034" y2="53.8963" gradientUnits="userSpaceOnUse">
<stop stop-color="white"/>
<stop offset="1" stop-color="white" stop-opacity="0.7"/>
</linearGradient>
<linearGradient id="paint11_linear_341_2" x1="86.2527" y1="136.791" x2="184.283" y2="76.6948" gradientUnits="userSpaceOnUse">
<stop stop-color="white"/>
<stop offset="1" stop-color="white" stop-opacity="0.7"/>
</linearGradient>
<linearGradient id="paint12_linear_341_2" x1="86.2527" y1="165.289" x2="184.283" y2="105.193" gradientUnits="userSpaceOnUse">
<stop stop-color="white"/>
<stop offset="1" stop-color="white" stop-opacity="0.7"/>
</linearGradient>
<linearGradient id="paint13_linear_341_2" x1="86.2527" y1="186.947" x2="184.283" y2="126.851" gradientUnits="userSpaceOnUse">
<stop stop-color="white"/>
<stop offset="1" stop-color="white" stop-opacity="0.7"/>
</linearGradient>
<linearGradient id="paint14_linear_341_2" x1="86.2527" y1="193.787" x2="184.283" y2="133.691" gradientUnits="userSpaceOnUse">
<stop stop-color="white"/>
<stop offset="1" stop-color="white" stop-opacity="0.7"/>
</linearGradient>
<linearGradient id="paint15_linear_341_2" x1="115.004" y1="127.671" x2="213.034" y2="67.5754" gradientUnits="userSpaceOnUse">
<stop stop-color="white"/>
<stop offset="1" stop-color="white" stop-opacity="0.7"/>
</linearGradient>
<linearGradient id="paint16_linear_341_2" x1="111.41" y1="116.272" x2="90.4421" y2="129.738" gradientUnits="userSpaceOnUse">
<stop stop-color="#B661E8"/>
<stop offset="1" stop-color="#6F1A9F" stop-opacity="0.7"/>
</linearGradient>
<linearGradient id="paint17_linear_341_2" x1="70.6794" y1="139.071" x2="42.4415" y2="195.513" gradientUnits="userSpaceOnUse">
<stop stop-color="#442657" stop-opacity="0.5"/>
<stop offset="1" stop-color="#2D1040"/>
</linearGradient>
<linearGradient id="paint18_linear_341_2" x1="70.6794" y1="186.947" x2="42.4415" y2="243.39" gradientUnits="userSpaceOnUse">
<stop stop-color="#442657" stop-opacity="0.5"/>
<stop offset="1" stop-color="#2D1040"/>
</linearGradient>
<linearGradient id="paint19_linear_341_2" x1="111.41" y1="123.112" x2="90.4421" y2="136.578" gradientUnits="userSpaceOnUse">
<stop stop-color="#B661E8"/>
<stop offset="1" stop-color="#6F1A9F" stop-opacity="0.7"/>
</linearGradient>
<linearGradient id="paint20_linear_341_2" x1="111.41" y1="129.951" x2="90.4421" y2="143.418" gradientUnits="userSpaceOnUse">
<stop stop-color="#B661E8"/>
<stop offset="1" stop-color="#6F1A9F" stop-opacity="0.7"/>
</linearGradient>
<linearGradient id="paint21_linear_341_2" x1="111.41" y1="136.791" x2="90.4421" y2="150.257" gradientUnits="userSpaceOnUse">
<stop stop-color="#B661E8"/>
<stop offset="1" stop-color="#6F1A9F" stop-opacity="0.7"/>
</linearGradient>
<linearGradient id="paint22_linear_341_2" x1="111.41" y1="143.63" x2="90.4421" y2="157.097" gradientUnits="userSpaceOnUse">
<stop stop-color="#B661E8"/>
<stop offset="1" stop-color="#6F1A9F" stop-opacity="0.7"/>
</linearGradient>
<linearGradient id="paint23_linear_341_2" x1="111.41" y1="150.47" x2="90.4421" y2="163.936" gradientUnits="userSpaceOnUse">
<stop stop-color="#B661E8"/>
<stop offset="1" stop-color="#6F1A9F" stop-opacity="0.7"/>
</linearGradient>
<linearGradient id="paint24_linear_341_2" x1="111.41" y1="173.268" x2="90.4421" y2="186.735" gradientUnits="userSpaceOnUse">
<stop stop-color="#B661E8"/>
<stop offset="1" stop-color="#6F1A9F" stop-opacity="0.7"/>
</linearGradient>
<linearGradient id="paint25_linear_341_2" x1="111.41" y1="180.108" x2="90.4421" y2="193.574" gradientUnits="userSpaceOnUse">
<stop stop-color="#B661E8"/>
<stop offset="1" stop-color="#6F1A9F" stop-opacity="0.7"/>
</linearGradient>
<linearGradient id="paint26_linear_341_2" x1="111.41" y1="186.947" x2="90.4421" y2="200.414" gradientUnits="userSpaceOnUse">
<stop stop-color="#B661E8"/>
<stop offset="1" stop-color="#6F1A9F" stop-opacity="0.7"/>
</linearGradient>
<linearGradient id="paint27_linear_341_2" x1="111.41" y1="193.787" x2="90.4421" y2="207.253" gradientUnits="userSpaceOnUse">
<stop stop-color="#B661E8"/>
<stop offset="1" stop-color="#6F1A9F" stop-opacity="0.7"/>
</linearGradient>
<linearGradient id="paint28_linear_341_2" x1="150.943" y1="107.723" x2="248.973" y2="47.6267" gradientUnits="userSpaceOnUse">
<stop stop-color="white"/>
<stop offset="1" stop-color="white" stop-opacity="0.7"/>
</linearGradient>
<linearGradient id="paint29_linear_341_2" x1="115.004" y1="141.35" x2="213.034" y2="81.2544" gradientUnits="userSpaceOnUse">
<stop stop-color="white"/>
<stop offset="1" stop-color="white" stop-opacity="0.7"/>
</linearGradient>
<linearGradient id="paint30_linear_341_2" x1="115.004" y1="185.237" x2="213.034" y2="125.141" gradientUnits="userSpaceOnUse">
<stop stop-color="white"/>
<stop offset="1" stop-color="white" stop-opacity="0.7"/>
</linearGradient>
<linearGradient id="paint31_linear_341_2" x1="134.172" y1="130.521" x2="232.202" y2="70.4251" gradientUnits="userSpaceOnUse">
<stop stop-color="white"/>
<stop offset="1" stop-color="white" stop-opacity="0.7"/>
</linearGradient>
<linearGradient id="paint32_linear_341_2" x1="115.004" y1="134.511" x2="213.034" y2="74.4149" gradientUnits="userSpaceOnUse">
<stop stop-color="white"/>
<stop offset="1" stop-color="white" stop-opacity="0.7"/>
</linearGradient>
<linearGradient id="paint33_linear_341_2" x1="428.872" y1="36.4775" x2="428.872" y2="147.05" gradientUnits="userSpaceOnUse">
<stop stop-color="#160313"/>
<stop offset="1" stop-color="#24071E"/>
</linearGradient>
<linearGradient id="paint34_linear_341_2" x1="443.249" y1="82.0745" x2="443.249" y2="108.293" gradientUnits="userSpaceOnUse">
<stop stop-color="white"/>
<stop offset="1" stop-color="white" stop-opacity="0.4"/>
</linearGradient>
<linearGradient id="paint35_linear_341_2" x1="427.675" y1="70.6752" x2="427.675" y2="110.573" gradientUnits="userSpaceOnUse">
<stop stop-color="white"/>
<stop offset="1" stop-color="white" stop-opacity="0.4"/>
</linearGradient>
<linearGradient id="paint36_linear_341_2" x1="413.299" y1="75.8049" x2="413.299" y2="100.313" gradientUnits="userSpaceOnUse">
<stop stop-color="white"/>
<stop offset="1" stop-color="white" stop-opacity="0.4"/>
</linearGradient>
<linearGradient id="paint37_linear_341_2" x1="428.872" y1="113.992" x2="428.872" y2="224.565" gradientUnits="userSpaceOnUse">
<stop stop-color="#160313"/>
<stop offset="1" stop-color="#24071E"/>
</linearGradient>
<linearGradient id="paint38_linear_341_2" x1="441.651" y1="171.966" x2="436.449" y2="191.101" gradientUnits="userSpaceOnUse">
<stop stop-color="white"/>
<stop offset="1" stop-color="white" stop-opacity="0.4"/>
</linearGradient>
<linearGradient id="paint39_linear_341_2" x1="415.41" y1="161.489" x2="419.785" y2="183.156" gradientUnits="userSpaceOnUse">
<stop stop-color="white"/>
<stop offset="1" stop-color="white" stop-opacity="0.4"/>
</linearGradient>
<linearGradient id="paint40_linear_341_2" x1="428.872" y1="191.507" x2="428.872" y2="302.08" gradientUnits="userSpaceOnUse">
<stop stop-color="#160313"/>
<stop offset="1" stop-color="#24071E"/>
</linearGradient>
<linearGradient id="paint41_linear_341_2" x1="427.076" y1="225.705" x2="427.583" y2="270.493" gradientUnits="userSpaceOnUse">
<stop stop-color="#C1C1C1"/>
<stop offset="1" stop-color="#463242" stop-opacity="0.2"/>
</linearGradient>
</defs>
</svg>
